<svg xmlns="http://www.w3.org/2000/svg" width="162" height="57" fill="none"><path fill="#F8F8F8" d="M39.026 42.952H3.882a3.9 3.9 0 0 1-1.541-.3q-.711-.299-1.245-.808a4.1 4.1 0 0 1-.8-1.258A4.05 4.05 0 0 1 0 39.028V0h7.704v35.165h31.322zM78.674 32.02q0 2.006-.504 3.624-.504 1.587-1.333 2.815a9.6 9.6 0 0 1-1.926 2.067 11.4 11.4 0 0 1-2.312 1.378q-1.185.54-2.43.809-1.215.24-2.31.24H53.96q-1.6 0-3.497-.57a10.5 10.5 0 0 1-3.526-1.857q-1.6-1.318-2.697-3.385-1.067-2.096-1.067-5.122V21.476q0-2.995 1.067-5.062 1.096-2.097 2.697-3.385 1.63-1.317 3.526-1.887 1.896-.569 3.497-.569h13.897q2.963 0 5.038 1.079 2.073 1.078 3.348 2.725a10.4 10.4 0 0 1 1.837 3.535q.593 1.917.593 3.564zm-7.705-10.484q0-1.617-.8-2.396-.8-.78-2.31-.779h-13.84q-1.54 0-2.34.809-.8.779-.8 2.306V32.02q0 1.529.8 2.337t2.34.808h13.84q1.569 0 2.34-.808.77-.81.77-2.337zM120.1 46.067q0 2.007-.504 3.595-.504 1.617-1.333 2.815a8.7 8.7 0 0 1-1.926 2.067 10.7 10.7 0 0 1-2.312 1.408q-1.185.54-2.43.778-1.215.27-2.311.27H95.386v-7.788h13.898q1.57 0 2.341-.808.77-.81.77-2.337v-24.59q0-1.53-.77-2.307-.77-.81-2.341-.809H95.386q-1.421 0-2.252.899-.83.868-.83 2.216V32.02q0 1.529.8 2.337t2.342.808h13.838v7.788H95.386q-1.095 0-2.31-.24-1.215-.27-2.43-.808-1.185-.54-2.282-1.378a9.6 9.6 0 0 1-1.927-2.067q-.83-1.227-1.333-2.815-.504-1.618-.504-3.625V21.476q0-1.108.237-2.336.267-1.229.8-2.426a11.6 11.6 0 0 1 1.364-2.337 9.5 9.5 0 0 1 2.044-1.947q1.215-.838 2.786-1.348 1.57-.509 3.555-.509h13.898q1.096 0 2.311.27 1.245.24 2.43.779 1.215.54 2.312 1.407a8.7 8.7 0 0 1 1.926 2.067q.83 1.198 1.333 2.786.504 1.587.504 3.594zM162 32.02q0 2.006-.504 3.624-.504 1.587-1.333 2.815a9.6 9.6 0 0 1-1.926 2.067 11.4 11.4 0 0 1-2.312 1.378q-1.185.54-2.429.809-1.215.24-2.312.24h-13.897q-1.6 0-3.497-.57a10.5 10.5 0 0 1-3.526-1.857q-1.6-1.318-2.697-3.385-1.067-2.096-1.067-5.122V21.476q0-2.995 1.067-5.062 1.097-2.097 2.697-3.385a10.3 10.3 0 0 1 3.526-1.887q1.896-.569 3.497-.569h13.897q2.964 0 5.038 1.079t3.348 2.725a10.4 10.4 0 0 1 1.837 3.535q.593 1.917.593 3.564zm-7.704-10.484q0-1.617-.8-2.396-.8-.78-2.312-.779h-13.838q-1.541 0-2.341.809-.8.779-.8 2.306V32.02q0 1.529.8 2.337t2.341.808h13.838q1.571 0 2.341-.808.771-.81.771-2.337z"/></svg>