<svg xmlns="http://www.w3.org/2000/svg" width="162" height="57" data-name="Group 1"><path fill="#333" d="M39.026 42.952H3.882a3.9 3.9 0 0 1-1.541-.3 4.1 4.1 0 0 1-1.241-.808 4.1 4.1 0 0 1-.8-1.258 4.05 4.05 0 0 1-.3-1.558V0h7.7v35.165h31.326Z" data-name="Path 1"/><path fill="#333" d="M78.674 32.019a12.2 12.2 0 0 1-.5 3.624 10.9 10.9 0 0 1-1.333 2.816 9.6 9.6 0 0 1-1.926 2.067A11.4 11.4 0 0 1 72.6 41.9a11.2 11.2 0 0 1-4.741 1.048H53.96a12.2 12.2 0 0 1-3.5-.569 10.5 10.5 0 0 1-3.526-1.857 11 11 0 0 1-2.7-3.385 11.2 11.2 0 0 1-1.067-5.122V21.476a10.94 10.94 0 0 1 1.067-5.062 10.5 10.5 0 0 1 2.7-3.385 10.3 10.3 0 0 1 3.526-1.887 12.2 12.2 0 0 1 3.5-.569h13.9a10.8 10.8 0 0 1 5.04 1.079 9.96 9.96 0 0 1 3.348 2.726 10.4 10.4 0 0 1 1.837 3.534 12.1 12.1 0 0 1 .593 3.564Zm-7.7-10.483a3.2 3.2 0 0 0-.8-2.4 3.18 3.18 0 0 0-2.311-.779H54.02a3.15 3.15 0 0 0-2.341.809 3.08 3.08 0 0 0-.8 2.306v10.547a3.18 3.18 0 0 0 .8 2.336 3.15 3.15 0 0 0 2.341.809h13.838a3.1 3.1 0 0 0 2.341-.809 3.26 3.26 0 0 0 .771-2.336Z" data-name="Path 2"/><path fill="#333" d="M120.1 46.067a11.9 11.9 0 0 1-.5 3.594 10.3 10.3 0 0 1-1.333 2.816 8.7 8.7 0 0 1-1.926 2.067A12.02 12.02 0 0 1 109.284 57h-13.9v-7.788h13.9a3.1 3.1 0 0 0 2.341-.809 3.26 3.26 0 0 0 .77-2.336V21.476a3.15 3.15 0 0 0-.77-2.306 3.1 3.1 0 0 0-2.341-.809h-13.9a2.92 2.92 0 0 0-2.252.9 3.08 3.08 0 0 0-.83 2.217v10.541a3.18 3.18 0 0 0 .8 2.336 3.15 3.15 0 0 0 2.341.809h13.838v7.788h-13.9a12 12 0 0 1-2.311-.24 13 13 0 0 1-2.43-.809 11.8 11.8 0 0 1-2.282-1.378 9.6 9.6 0 0 1-1.926-2.067 10.9 10.9 0 0 1-1.332-2.814 12.2 12.2 0 0 1-.5-3.624V21.476a12.3 12.3 0 0 1 .237-2.336 12.5 12.5 0 0 1 .8-2.426A11.6 11.6 0 0 1 87 14.377a9.5 9.5 0 0 1 2.045-1.947 10.7 10.7 0 0 1 2.785-1.348 11.5 11.5 0 0 1 3.556-.509h13.9a11.55 11.55 0 0 1 7.053 2.456 8.7 8.7 0 0 1 1.926 2.067 10.4 10.4 0 0 1 1.333 2.786 11.9 11.9 0 0 1 .5 3.594Z" data-name="Path 3"/><path fill="#333" d="M162 32.019a12.2 12.2 0 0 1-.5 3.624 10.9 10.9 0 0 1-1.333 2.816 9.6 9.6 0 0 1-1.926 2.067 11.4 11.4 0 0 1-2.312 1.378 11.2 11.2 0 0 1-4.741 1.048h-13.9a12.2 12.2 0 0 1-3.5-.569 10.5 10.5 0 0 1-3.526-1.857 11 11 0 0 1-2.7-3.385 11.2 11.2 0 0 1-1.067-5.122V21.476a10.94 10.94 0 0 1 1.067-5.062 10.5 10.5 0 0 1 2.7-3.385 10.3 10.3 0 0 1 3.526-1.887 12.2 12.2 0 0 1 3.5-.569h13.9a10.8 10.8 0 0 1 5.038 1.078 9.95 9.95 0 0 1 3.348 2.726 10.4 10.4 0 0 1 1.837 3.534 12.1 12.1 0 0 1 .589 3.565Zm-7.7-10.483a3.2 3.2 0 0 0-.8-2.4 3.18 3.18 0 0 0-2.312-.779h-13.842a3.15 3.15 0 0 0-2.341.809 3.08 3.08 0 0 0-.8 2.306v10.547a3.19 3.19 0 0 0 .8 2.336 3.15 3.15 0 0 0 2.341.809h13.838a3.1 3.1 0 0 0 2.341-.809 3.26 3.26 0 0 0 .771-2.336Z" data-name="Path 4"/></svg>