<svg data-name="Group 1" xmlns="http://www.w3.org/2000/svg" width="162" height="57"><path data-name="Path 1" d="M39.026 42.952H3.882a3.931 3.931 0 0 1-1.541-.3 4.073 4.073 0 0 1-1.241-.808 4.126 4.126 0 0 1-.8-1.258 4.047 4.047 0 0 1-.3-1.558V0h7.7v35.165h31.326Z" fill="#333"/><path data-name="Path 2" d="M78.674 32.019a12.163 12.163 0 0 1-.5 3.624 10.869 10.869 0 0 1-1.333 2.816 9.562 9.562 0 0 1-1.926 2.067A11.424 11.424 0 0 1 72.6 41.9a11.224 11.224 0 0 1-4.741 1.048H53.96a12.234 12.234 0 0 1-3.5-.569 10.538 10.538 0 0 1-3.526-1.857 10.978 10.978 0 0 1-2.7-3.385 11.2 11.2 0 0 1-1.067-5.122V21.476a10.939 10.939 0 0 1 1.067-5.062 10.528 10.528 0 0 1 2.7-3.385 10.271 10.271 0 0 1 3.526-1.887 12.234 12.234 0 0 1 3.5-.569h13.9a10.812 10.812 0 0 1 5.04 1.079 9.958 9.958 0 0 1 3.348 2.726 10.409 10.409 0 0 1 1.837 3.534 12.117 12.117 0 0 1 .593 3.564Zm-7.7-10.483a3.21 3.21 0 0 0-.8-2.4 3.181 3.181 0 0 0-2.311-.779H54.02a3.152 3.152 0 0 0-2.341.809 3.078 3.078 0 0 0-.8 2.306v10.547a3.184 3.184 0 0 0 .8 2.336 3.152 3.152 0 0 0 2.341.809h13.838a3.092 3.092 0 0 0 2.341-.809 3.259 3.259 0 0 0 .771-2.336Z" fill="#333"/><path data-name="Path 3" d="M120.1 46.067a11.861 11.861 0 0 1-.5 3.594 10.288 10.288 0 0 1-1.333 2.816 8.733 8.733 0 0 1-1.926 2.067A12.02 12.02 0 0 1 109.284 57h-13.9v-7.788h13.9a3.092 3.092 0 0 0 2.341-.809 3.257 3.257 0 0 0 .77-2.336V21.476a3.148 3.148 0 0 0-.77-2.306 3.092 3.092 0 0 0-2.341-.809h-13.9a2.915 2.915 0 0 0-2.252.9 3.079 3.079 0 0 0-.83 2.217v10.541a3.184 3.184 0 0 0 .8 2.336 3.152 3.152 0 0 0 2.341.809h13.838v7.788h-13.9a11.96 11.96 0 0 1-2.311-.24 12.85 12.85 0 0 1-2.43-.809 11.785 11.785 0 0 1-2.282-1.378 9.562 9.562 0 0 1-1.926-2.067 10.869 10.869 0 0 1-1.332-2.814 12.16 12.16 0 0 1-.5-3.624V21.476a12.334 12.334 0 0 1 .237-2.336 12.457 12.457 0 0 1 .8-2.426A11.6 11.6 0 0 1 87 14.377a9.542 9.542 0 0 1 2.045-1.947 10.654 10.654 0 0 1 2.785-1.348 11.507 11.507 0 0 1 3.556-.509h13.9a11.548 11.548 0 0 1 7.053 2.456 8.735 8.735 0 0 1 1.926 2.067 10.372 10.372 0 0 1 1.333 2.786 11.861 11.861 0 0 1 .5 3.594Z" fill="#333"/><path data-name="Path 4" d="M162 32.019a12.157 12.157 0 0 1-.5 3.624 10.878 10.878 0 0 1-1.333 2.816 9.554 9.554 0 0 1-1.926 2.067 11.429 11.429 0 0 1-2.312 1.378 11.217 11.217 0 0 1-4.741 1.048h-13.9a12.234 12.234 0 0 1-3.5-.569 10.534 10.534 0 0 1-3.526-1.857 10.976 10.976 0 0 1-2.7-3.385 11.2 11.2 0 0 1-1.067-5.122V21.476a10.942 10.942 0 0 1 1.067-5.062 10.526 10.526 0 0 1 2.7-3.385 10.268 10.268 0 0 1 3.526-1.887 12.234 12.234 0 0 1 3.5-.569h13.9a10.812 10.812 0 0 1 5.038 1.078 9.95 9.95 0 0 1 3.348 2.726 10.394 10.394 0 0 1 1.837 3.534 12.122 12.122 0 0 1 .589 3.565Zm-7.7-10.483a3.211 3.211 0 0 0-.8-2.4 3.183 3.183 0 0 0-2.312-.779h-13.842a3.152 3.152 0 0 0-2.341.809 3.08 3.08 0 0 0-.8 2.306v10.547a3.186 3.186 0 0 0 .8 2.336 3.152 3.152 0 0 0 2.341.809h13.838a3.091 3.091 0 0 0 2.341-.809 3.257 3.257 0 0 0 .771-2.336Z" fill="#333"/></svg>